<svg xmlns="http://www.w3.org/2000/svg" viewBox="0 0 1100 820">
  <defs>
    <linearGradient id="bgGrad" x1="0%" y1="0%" x2="100%" y2="100%">
      <stop offset="0%" style="stop-color:#0d1117"/>
      <stop offset="100%" style="stop-color:#161b22"/>
    </linearGradient>
    <linearGradient id="coreGrad" x1="0%" y1="0%" x2="0%" y2="100%">
      <stop offset="0%" style="stop-color:#1f6feb"/>
      <stop offset="100%" style="stop-color:#1958c7"/>
    </linearGradient>
    <linearGradient id="channelGrad" x1="0%" y1="0%" x2="0%" y2="100%">
      <stop offset="0%" style="stop-color:#238636"/>
      <stop offset="100%" style="stop-color:#1a7f37"/>
    </linearGradient>
    <linearGradient id="aiGrad" x1="0%" y1="0%" x2="0%" y2="100%">
      <stop offset="0%" style="stop-color:#a371f7"/>
      <stop offset="100%" style="stop-color:#8957e5"/>
    </linearGradient>
    <linearGradient id="bizGrad" x1="0%" y1="0%" x2="0%" y2="100%">
      <stop offset="0%" style="stop-color:#f78166"/>
      <stop offset="100%" style="stop-color:#da6d53"/>
    </linearGradient>
    <linearGradient id="prodGrad" x1="0%" y1="0%" x2="0%" y2="100%">
      <stop offset="0%" style="stop-color:#79c0ff"/>
      <stop offset="100%" style="stop-color:#58a6ff"/>
    </linearGradient>
    <linearGradient id="infraGrad" x1="0%" y1="0%" x2="0%" y2="100%">
      <stop offset="0%" style="stop-color:#7ee787"/>
      <stop offset="100%" style="stop-color:#56d364"/>
    </linearGradient>
    <linearGradient id="uiGrad" x1="0%" y1="0%" x2="0%" y2="100%">
      <stop offset="0%" style="stop-color:#d2a8ff"/>
      <stop offset="100%" style="stop-color:#bc8cff"/>
    </linearGradient>
    <linearGradient id="headerGrad" x1="0%" y1="0%" x2="100%" y2="0%">
      <stop offset="0%" style="stop-color:#f0883e"/>
      <stop offset="100%" style="stop-color:#db6d28"/>
    </linearGradient>
    <filter id="shadow" x="-10%" y="-10%" width="120%" height="120%">
      <feDropShadow dx="1" dy="2" stdDeviation="3" flood-opacity="0.3"/>
    </filter>
  </defs>

  <!-- Background -->
  <rect width="1100" height="820" fill="url(#bgGrad)"/>

  <!-- Title -->
  <text x="550" y="42" text-anchor="middle" font-family="system-ui, -apple-system, sans-serif" font-size="26" font-weight="bold" fill="#ffffff">General Bots Architecture</text>
  <text x="550" y="66" text-anchor="middle" font-family="system-ui, -apple-system, sans-serif" font-size="13" fill="#8b949e">Cargo Workspace — 57 Crates</text>

  <!-- Core Layer (9 crates) -->
  <g filter="url(#shadow)">
    <rect x="30" y="90" width="240" height="28" rx="6" fill="url(#coreGrad)"/>
    <text x="150" y="109" text-anchor="middle" font-family="system-ui, -apple-system, sans-serif" font-size="13" font-weight="bold" fill="#ffffff">CORE (9 crates)</text>
  </g>
  <g font-family="monospace" font-size="10" fill="#a5d6ff">
    <text x="40" y="135">botserver</text>
    <text x="130" y="135">botlib</text>
    <text x="195" y="135">botllm</text>
    <text x="40" y="150">botcorebot</text>
    <text x="130" y="150">botcorepkg</text>
    <text x="40" y="165">botcoresession</text>
    <text x="150" y="165">botcoreoauth</text>
    <text x="40" y="180">botcoresecrets</text>
    <text x="150" y="180">botcoredirectory</text>
  </g>

  <!-- Channels Layer (6 crates) -->
  <g filter="url(#shadow)">
    <rect x="290" y="90" width="240" height="28" rx="6" fill="url(#channelGrad)"/>
    <text x="410" y="109" text-anchor="middle" font-family="system-ui, -apple-system, sans-serif" font-size="13" font-weight="bold" fill="#ffffff">CHANNELS (6 crates)</text>
  </g>
  <g font-family="monospace" font-size="10" fill="#7ee787">
    <text x="300" y="135">botchannels</text>
    <text x="395" y="135">botwhatsapp</text>
    <text x="300" y="150">botmsteams</text>
    <text x="390" y="150">bottelegram</text>
    <text x="300" y="165">botinstagram</text>
    <text x="395" y="165">botemail</text>
  </g>

  <!-- AI & Search Layer (6 crates) -->
  <g filter="url(#shadow)">
    <rect x="550" y="90" width="240" height="28" rx="6" fill="url(#aiGrad)"/>
    <text x="670" y="109" text-anchor="middle" font-family="system-ui, -apple-system, sans-serif" font-size="13" font-weight="bold" fill="#ffffff">AI &amp; SEARCH (6 crates)</text>
  </g>
  <g font-family="monospace" font-size="10" fill="#d2a8ff">
    <text x="560" y="135">botqdrant</text>
    <text x="640" y="135">botsearch</text>
    <text x="720" y="135">botresearch</text>
    <text x="560" y="150">botmultimodal</text>
    <text x="660" y="150">botkb</text>
    <text x="720" y="150">botnvidia</text>
  </g>

  <!-- Business Applications Layer (10 crates) -->
  <g filter="url(#shadow)">
    <rect x="30" y="210" width="300" height="28" rx="6" fill="url(#bizGrad)"/>
    <text x="180" y="229" text-anchor="middle" font-family="system-ui, -apple-system, sans-serif" font-size="13" font-weight="bold" fill="#ffffff">BUSINESS APPLICATIONS (10 crates)</text>
  </g>
  <g font-family="monospace" font-size="10" fill="#ffddd2">
    <text x="40" y="255">botattendance</text>
    <text x="140" y="255">botbilling</text>
    <text x="220" y="255">botcalendar</text>
    <text x="40" y="270">botcompliance</text>
    <text x="150" y="270">botcontacts</text>
    <text x="240" y="270">botproducts</text>
    <text x="40" y="285">botproject</text>
    <text x="130" y="285">bottasks</text>
    <text x="200" y="285">bottickets</text>
    <text x="275" y="285">botmarketing</text>
  </g>

  <!-- Productivity & Content Layer (10 crates) -->
  <g filter="url(#shadow)">
    <rect x="350" y="210" width="300" height="28" rx="6" fill="url(#prodGrad)"/>
    <text x="500" y="229" text-anchor="middle" font-family="system-ui, -apple-system, sans-serif" font-size="13" font-weight="bold" fill="#0d1117">PRODUCTIVITY &amp; CONTENT (10 crates)</text>
  </g>
  <g font-family="monospace" font-size="10" fill="#cae8ff">
    <text x="360" y="255">botaiassist</text>
    <text x="445" y="255">botknowledge</text>
    <text x="555" y="255">botcontent</text>
    <text x="360" y="270">botcollab</text>
    <text x="440" y="270">botforms</text>
    <text x="510" y="270">botworkflow</text>
    <text x="360" y="285">botscheduler</text>
    <text x="460" y="285">botfeed</text>
    <text x="530" y="285">botmedia</text>
    <text x="600" y="285">botdoc</text>
  </g>

  <!-- Infrastructure Layer (14 crates) -->
  <g filter="url(#shadow)">
    <rect x="30" y="320" width="500" height="28" rx="6" fill="url(#infraGrad)"/>
    <text x="280" y="339" text-anchor="middle" font-family="system-ui, -apple-system, sans-serif" font-size="13" font-weight="bold" fill="#0d1117">INFRASTRUCTURE (14 crates)</text>
  </g>
  <g font-family="monospace" font-size="10" fill="#1a4721">
    <text x="40" y="365">botstore</text>
    <text x="110" y="365">botcache</text>
    <text x="180" y="365">botqueue</text>
    <text x="250" y="365">botnet</text>
    <text x="310" y="365">botconfig</text>
    <text x="390" y="365">botlog</text>
    <text x="440" y="365">botmetrics</text>
    <text x="40" y="380">bothttprouter</text>
    <text x="145" y="380">botmiddleware</text>
    <text x="255" y="380">botstaticfiles</text>
    <text x="370" y="380">botdeployment</text>
    <text x="40" y="395">botpackage</text>
    <text x="130" y="395">botdaemon</text>
    <text x="210" y="395">botwatcher</text>
  </g>

  <!-- UI Layer (2 crates) -->
  <g filter="url(#shadow)">
    <rect x="550" y="320" width="200" height="28" rx="6" fill="url(#uiGrad)"/>
    <text x="650" y="339" text-anchor="middle" font-family="system-ui, -apple-system, sans-serif" font-size="13" font-weight="bold" fill="#0d1117">UI (2 crates)</text>
  </g>
  <g font-family="monospace" font-size="10" fill="#0d1117">
    <text x="560" y="365">botapp</text>
    <text x="630" y="365">botui</text>
  </g>

  <!-- Data Flow Section -->
  <text x="550" y="440" text-anchor="middle" font-family="system-ui, -apple-system, sans-serif" font-size="18" font-weight="bold" fill="#ffffff">Data Flow</text>

  <!-- Arrow marker -->
  <marker id="arrowhead" markerWidth="10" markerHeight="7" refX="9" refY="3.5" orient="auto">
    <polygon points="0 0, 10 3.5, 0 7" fill="#58a6ff"/>
  </marker>

  <!-- Client Layer -->
  <g filter="url(#shadow)">
    <rect x="60" y="470" width="150" height="70" rx="8" fill="url(#uiGrad)"/>
    <text x="135" y="500" text-anchor="middle" font-family="system-ui, -apple-system, sans-serif" font-size="15" font-weight="bold" fill="#0d1117">botapp</text>
    <text x="135" y="520" text-anchor="middle" font-family="system-ui, -apple-system, sans-serif" font-size="10" fill="#1a1a2e">Tauri Desktop</text>
  </g>

  <g filter="url(#shadow)">
    <rect x="230" y="470" width="150" height="70" rx="8" fill="#58a6ff"/>
    <text x="305" y="500" text-anchor="middle" font-family="system-ui, -apple-system, sans-serif" font-size="15" font-weight="bold" fill="#0d1117">botui</text>
    <text x="305" y="520" text-anchor="middle" font-family="system-ui, -apple-system, sans-serif" font-size="10" fill="#1a1a2e">Web UI · HTMX</text>
  </g>

  <!-- Channels at top feeding in -->
  <g filter="url(#shadow)">
    <rect x="420" y="470" width="150" height="70" rx="8" fill="url(#channelGrad)"/>
    <text x="495" y="498" text-anchor="middle" font-family="system-ui, -apple-system, sans-serif" font-size="14" font-weight="bold" fill="#ffffff">Channels</text>
    <text x="495" y="518" text-anchor="middle" font-family="system-ui, -apple-system, sans-serif" font-size="9" fill="#d1fae5">WhatsApp · Teams · Telegram</text>
    <text x="495" y="532" text-anchor="middle" font-family="system-ui, -apple-system, sans-serif" font-size="9" fill="#d1fae5">Instagram · Email</text>
  </g>

  <!-- Arrows to botserver -->
  <path d="M 305 540 L 305 560 L 550 560 L 550 580" stroke="#58a6ff" stroke-width="2" fill="none" marker-end="url(#arrowhead)"/>
  <path d="M 135 540 L 135 570 L 550 570 L 550 580" stroke="#58a6ff" stroke-width="1.5" fill="none" marker-end="url(#arrowhead)" stroke-dasharray="4,2"/>
  <path d="M 495 540 L 495 560 L 550 560" stroke="#7ee787" stroke-width="2" fill="none"/>

  <!-- botserver central -->
  <g filter="url(#shadow)">
    <rect x="440" y="590" width="220" height="70" rx="10" fill="url(#coreGrad)"/>
    <text x="550" y="620" text-anchor="middle" font-family="system-ui, -apple-system, sans-serif" font-size="18" font-weight="bold" fill="#ffffff">botserver</text>
    <text x="550" y="642" text-anchor="middle" font-family="system-ui, -apple-system, sans-serif" font-size="11" fill="#a5d6ff">Core API · LLM Orchestration · Routing</text>
  </g>

  <!-- Arrows from botserver down -->
  <path d="M 490 660 L 300 690" stroke="#f78166" stroke-width="2" fill="none" marker-end="url(#arrowhead)"/>
  <path d="M 550 660 L 550 690" stroke="#a371f7" stroke-width="2" fill="none" marker-end="url(#arrowhead)"/>
  <path d="M 610 660 L 800 690" stroke="#7ee787" stroke-width="2" fill="none" marker-end="url(#arrowhead)"/>

  <!-- botlib -->
  <g filter="url(#shadow)">
    <rect x="180" y="700" width="180" height="60" rx="8" fill="url(#bizGrad)"/>
    <text x="270" y="725" text-anchor="middle" font-family="system-ui, -apple-system, sans-serif" font-size="16" font-weight="bold" fill="#ffffff">botlib</text>
    <text x="270" y="745" text-anchor="middle" font-family="system-ui, -apple-system, sans-serif" font-size="10" fill="#ffddd2">Types · Utils · HTTP</text>
  </g>

  <!-- AI / Search -->
  <g filter="url(#shadow)">
    <rect x="400" y="700" width="180" height="60" rx="8" fill="url(#aiGrad)"/>
    <text x="490" y="725" text-anchor="middle" font-family="system-ui, -apple-system, sans-serif" font-size="16" font-weight="bold" fill="#ffffff">AI &amp; Search</text>
    <text x="490" y="745" text-anchor="middle" font-family="system-ui, -apple-system, sans-serif" font-size="10" fill="#d2a8ff">Qdrant · Research · LLM</text>
  </g>

  <!-- Infrastructure -->
  <g filter="url(#shadow)">
    <rect x="620" y="700" width="180" height="60" rx="8" fill="url(#infraGrad)"/>
    <text x="710" y="725" text-anchor="middle" font-family="system-ui, -apple-system, sans-serif" font-size="16" font-weight="bold" fill="#0d1117">Infrastructure</text>
    <text x="710" y="745" text-anchor="middle" font-family="system-ui, -apple-system, sans-serif" font-size="10" fill="#1a4721">Store · Cache · Queue · Net</text>
  </g>

  <!-- External Services -->
  <g>
    <rect x="860" y="470" width="100" height="130" rx="8" fill="none" stroke="#30363d" stroke-width="2" stroke-dasharray="5,3"/>
    <text x="910" y="500" text-anchor="middle" font-family="system-ui, -apple-system, sans-serif" font-size="10" fill="#8b949e">External</text>
    <text x="910" y="520" text-anchor="middle" font-family="system-ui, -apple-system, sans-serif" font-size="9" fill="#6e7681">OpenAI</text>
    <text x="910" y="536" text-anchor="middle" font-family="system-ui, -apple-system, sans-serif" font-size="9" fill="#6e7681">Anthropic</text>
    <text x="910" y="552" text-anchor="middle" font-family="system-ui, -apple-system, sans-serif" font-size="9" fill="#6e7681">Groq</text>
    <text x="910" y="568" text-anchor="middle" font-family="system-ui, -apple-system, sans-serif" font-size="9" fill="#6e7681">Ollama</text>
    <text x="910" y="584" text-anchor="middle" font-family="system-ui, -apple-system, sans-serif" font-size="9" fill="#6e7681">Qdrant</text>
  </g>
  <path d="M 660 625 L 850 540" stroke="#30363d" stroke-width="1.5" fill="none" marker-end="url(#arrowhead)" stroke-dasharray="4,2"/>

  <!-- Legend -->
  <g transform="translate(870, 700)">
    <text x="0" y="0" font-family="system-ui, -apple-system, sans-serif" font-size="11" font-weight="bold" fill="#8b949e">LEGEND</text>
    <rect x="0" y="12" width="14" height="10" rx="2" fill="url(#coreGrad)"/>
    <text x="20" y="21" font-family="system-ui, -apple-system, sans-serif" font-size="9" fill="#8b949e">Core</text>
    <rect x="0" y="28" width="14" height="10" rx="2" fill="url(#channelGrad)"/>
    <text x="20" y="37" font-family="system-ui, -apple-system, sans-serif" font-size="9" fill="#8b949e">Channels</text>
    <rect x="0" y="44" width="14" height="10" rx="2" fill="url(#aiGrad)"/>
    <text x="20" y="53" font-family="system-ui, -apple-system, sans-serif" font-size="9" fill="#8b949e">AI &amp; Search</text>
    <rect x="0" y="60" width="14" height="10" rx="2" fill="url(#bizGrad)"/>
    <text x="20" y="69" font-family="system-ui, -apple-system, sans-serif" font-size="9" fill="#8b949e">Business</text>
    <rect x="0" y="76" width="14" height="10" rx="2" fill="url(#infraGrad)"/>
    <text x="20" y="85" font-family="system-ui, -apple-system, sans-serif" font-size="9" fill="#8b949e">Infrastructure</text>
    <rect x="0" y="92" width="14" height="10" rx="2" fill="url(#uiGrad)"/>
    <text x="20" y="101" font-family="system-ui, -apple-system, sans-serif" font-size="9" fill="#8b949e">UI</text>
  </g>

  <!-- Footer -->
  <text x="550" y="800" text-anchor="middle" font-family="system-ui, -apple-system, sans-serif" font-size="11" fill="#484f58">cargo build —workspace · Code Name: Guaribas · AGPL-3.0</text>
</svg>